HIERARCHY
ROOT Hips
{
	OFFSET 0.000000 0.000000 0.000000
	CHANNELS 6 Xposition Yposition Zposition Zrotation Yrotation Xrotation 
	JOINT LHipJoint
	{
		OFFSET 0.000000 0.000000 0.000000
		CHANNELS 3 Zrotation Yrotation Xrotation
		JOINT LeftUpLeg
		{
			OFFSET 1.363060 -1.794630 0.839290
			CHANNELS 3 Zrotation Yrotation Xrotation
			JOINT LeftLeg
			{
				OFFSET 2.448110 -6.726130 0.000000
				CHANNELS 3 Zrotation Yrotation Xrotation
				JOINT LeftFoot
				{
					OFFSET 2.562200 -7.039590 0.000000
					CHANNELS 3 Zrotation Yrotation Xrotation
					JOINT LeftToeBase
					{
						OFFSET 0.157640 -0.433110 2.322550
						CHANNELS 3 Zrotation Yrotation Xrotation
						End Site
						{
							OFFSET 0.000000 0.000000 0.000000
						}
					}
				}
			}
		}
	}
	JOINT RHipJoint
	{
		OFFSET 0.000000 0.000000 0.000000
		CHANNELS 3 Zrotation Yrotation Xrotation
		JOINT RightUpLeg
		{
			OFFSET -1.305520 -1.794630 0.839290
			CHANNELS 3 Zrotation Yrotation Xrotation
			JOINT RightLeg
			{
				OFFSET -2.542530 -6.985550 0.000000
				CHANNELS 3 Zrotation Yrotation Xrotation
				JOINT RightFoot
				{
					OFFSET -2.568260 -7.056230 0.000000
					CHANNELS 3 Zrotation Yrotation Xrotation
					JOINT RightToeBase
					{
						OFFSET -0.164730 -0.452590 2.363150
						CHANNELS 3 Zrotation Yrotation Xrotation
						End Site
						{
							OFFSET 0.000000 0.000000 0.000000
						}
					}
				}
			}
		}
	}
	JOINT LowerBack
	{
		OFFSET 0.000000 0.000000 0.000000
		CHANNELS 3 Zrotation Yrotation Xrotation
		JOINT Spine
		{
			OFFSET 0.028270 2.035590 -0.193380
			CHANNELS 3 Zrotation Yrotation Xrotation
			JOINT Spine1
			{
				OFFSET 0.056720 2.048850 -0.042750
				CHANNELS 3 Zrotation Yrotation Xrotation
				JOINT Neck
				{
					OFFSET 0.000000 0.000000 0.000000
					CHANNELS 3 Zrotation Yrotation Xrotation
					JOINT Neck1
					{
						OFFSET -0.054170 1.746240 0.172020
						CHANNELS 3 Zrotation Yrotation Xrotation
						JOINT Head
						{
							OFFSET 0.104070 1.761360 -0.123970
							CHANNELS 3 Zrotation Yrotation Xrotation
							End Site
							{
								OFFSET 0.000000 0.000000 0.000000
							}
						}
					}
				}
				JOINT LeftShoulder
				{
					OFFSET 0.000000 0.000000 0.000000
					CHANNELS 3 Zrotation Yrotation Xrotation
					JOINT LeftArm
					{
						OFFSET 3.362410 1.200890 -0.311210
						CHANNELS 3 Zrotation Yrotation Xrotation
						JOINT LeftForeArm
						{
							OFFSET 4.983000 -0.000000 -0.000000
							CHANNELS 3 Zrotation Yrotation Xrotation
							JOINT LeftHand
							{
								OFFSET 3.483560 -0.000000 -0.000000
								CHANNELS 3 Zrotation Yrotation Xrotation
								JOINT LeftFingerBase
								{
									OFFSET 0.000000 0.000000 0.000000
									CHANNELS 3 Zrotation Yrotation Xrotation
									JOINT LeftHandIndex1
									{
										OFFSET 0.715260 -0.000000 -0.000000
										CHANNELS 3 Zrotation Yrotation Xrotation
										End Site
										{
											OFFSET 0.000000 0.000000 0.000000
										}
									}
								}
								JOINT LThumb
								{
									OFFSET 0.000000 0.000000 0.000000
									CHANNELS 3 Zrotation Yrotation Xrotation
									End Site
									{
										OFFSET 0.000000 0.000000 0.000000
									}
								}
							}
						}
					}
				}
				JOINT RightShoulder
				{
					OFFSET 0.000000 0.000000 0.000000
					CHANNELS 3 Zrotation Yrotation Xrotation
					JOINT RightArm
					{
						OFFSET -3.136600 1.374050 -0.404650
						CHANNELS 3 Zrotation Yrotation Xrotation
						JOINT RightForeArm
						{
							OFFSET -5.241900 -0.000000 -0.000000
							CHANNELS 3 Zrotation Yrotation Xrotation
							JOINT RightHand
							{
								OFFSET -3.444170 -0.000000 -0.000000
								CHANNELS 3 Zrotation Yrotation Xrotation
								JOINT RightFingerBase
								{
									OFFSET 0.000000 0.000000 0.000000
									CHANNELS 3 Zrotation Yrotation Xrotation
									JOINT RightHandIndex1
									{
										OFFSET -0.622530 -0.000000 -0.000000
										CHANNELS 3 Zrotation Yrotation Xrotation
										End Site
										{
											OFFSET 0.000000 0.000000 0.000000
										}
									}
								}
								JOINT RThumb
								{
									OFFSET 0.000000 0.000000 0.000000
									CHANNELS 3 Zrotation Yrotation Xrotation
									End Site
									{
										OFFSET 0.000000 0.000000 0.000000
									}
								}
							}
						}
					}
				}
			}
		}
	}
}
MOTION
Frames: 6
Frame Time: 0.008333
-2.712790 17.720077 -0.679482 26.478481 79.904505 44.717293 -9.393667 0.091261 3.342997 -8.035058 -5.836603 -32.665346 -2.889978 -0.901710 4.135000 -0.184452 -0.864296 4.754452 0.228100 0.000000 -30.586099 9.767030 -2.697374 -0.613243 10.126026 -0.346035 -8.123508 0.257262 -2.160247 29.459133 -0.952421 -4.802594 11.581190 -1.769400 -0.000000 -60.368700 -3.069755 -1.141690 -2.403934 -1.252252 -0.990387 -3.521537 -6.833523 -0.878927 -1.326323 10.232846 -11.266544 -7.786470 -2.802793 -0.216509 -0.028208 0.000000 0.000000 0.000000 4.975179 12.349800 -0.686015 -75.446603 23.162944 23.139506 179.911825 -66.457176 179.962806 4.248679 -5.411101 -0.215958 0.037812 0.513665 -0.000000 0.000000 0.000000 0.000000 0.000000 0.000000 0.000000 6.704493 -3.975304 -1.369595 84.804565 8.604584 37.539751 179.022283 72.932997 -179.986451 1.120630 8.946866 0.100183 -0.033357 -0.737797 -0.000000 0.000000 0.000000 0.000000 0.000000 0.000000 0.000000 
-2.502645 17.690871 -0.659049 25.890385 79.569191 43.963427 -9.377929 0.112894 3.434992 -7.756212 -6.366743 -32.378896 -2.832098 -0.883271 4.350041 -0.146949 -0.637533 4.516576 0.269900 -0.000000 -30.434200 9.866368 -2.581894 -0.807483 9.912301 -0.804132 -8.801091 -0.001675 -2.286788 32.357696 -1.384357 -7.468931 10.743476 -2.555000 0.000000 -59.754300 -3.123211 -1.184796 -2.293703 -1.260007 -1.026224 -3.505934 -6.838021 -0.915524 -1.356816 10.237423 -11.278973 -7.766817 -2.792899 -0.215836 -0.023067 0.000000 0.000000 0.000000 5.028105 12.188116 -0.668601 -75.791594 23.333993 22.874049 179.895846 -66.719118 179.962596 4.268803 -5.396746 -0.216305 0.039844 0.510412 -0.000000 0.000000 0.000000 0.000000 0.000000 0.000000 0.000000 6.664302 -4.025133 -1.372981 84.959409 8.496104 37.575950 179.044621 72.885000 -179.987774 1.012498 8.904971 0.090563 -0.032809 -0.736585 0.000000 0.000000 0.000000 0.000000 0.000000 0.000000 0.000000 
-2.294801 17.649220 -0.640140 25.209914 79.228226 43.114915 -9.362098 0.137562 3.525997 -7.402174 -7.008732 -32.124690 -2.740328 -0.835937 4.920210 -0.070994 -0.166796 4.120752 0.354600 -0.000000 -30.170000 9.964863 -2.441037 -1.002476 9.715176 -1.183601 -9.530697 -0.247530 -2.410017 35.419009 -1.858613 -10.308131 9.573956 -3.297100 0.000000 -58.128800 -3.146767 -1.225472 -2.166585 -1.261750 -1.061233 -3.488372 -6.842355 -0.951153 -1.393483 10.241338 -11.297633 -7.748453 -2.784693 -0.215234 -0.018708 0.000000 0.000000 0.000000 5.067208 11.991238 -0.646617 -76.146870 23.449580 22.633628 179.880831 -67.014836 179.962475 4.269420 -5.376699 -0.215355 0.042462 0.507451 -0.000000 0.000000 0.000000 0.000000 0.000000 0.000000 0.000000 6.629600 -4.082638 -1.370292 85.076829 8.395540 37.585151 179.067539 72.834188 -179.989377 0.868494 8.893133 0.078153 -0.031251 -0.736314 0.000000 0.000000 0.000000 0.000000 0.000000 0.000000 0.000000 
-2.089139 17.595169 -0.622230 24.533680 78.874305 42.272821 -9.340337 0.165005 3.613803 -7.016977 -7.756079 -31.909438 -2.623034 -0.763715 5.819539 0.039362 0.515650 3.594267 0.469700 0.000000 -29.926200 10.071314 -2.283897 -1.190374 9.502887 -1.479902 -10.315220 -0.473314 -2.536140 38.606115 -2.344753 -13.121800 8.123203 -3.891900 0.000000 -55.508901 -3.162946 -1.267202 -2.030910 -1.261688 -1.097418 -3.468294 -6.847631 -0.987605 -1.427368 10.251015 -11.309267 -7.739693 -2.779296 -0.214659 -0.017667 0.000000 0.000000 0.000000 5.111575 11.810172 -0.617256 -76.492684 23.457017 22.465569 179.869096 -67.362612 179.962423 4.261311 -5.356813 -0.214099 0.044851 0.505127 -0.000000 0.000000 0.000000 0.000000 0.000000 0.000000 0.000000 6.611404 -4.131646 -1.366461 85.158304 8.293005 37.549706 179.090419 72.768070 -179.990970 0.731774 8.910467 0.066640 -0.030204 -0.737072 -0.000000 0.000000 0.000000 0.000000 0.000000 0.000000 0.000000 
-1.885561 17.528813 -0.604910 23.909788 78.501442 41.491299 -9.313385 0.194897 3.684489 -6.671607 -8.518621 -31.793884 -2.496201 -0.664456 7.103800 0.169920 1.284899 2.916909 0.582500 0.000001 -29.784700 10.188183 -2.123098 -1.357452 9.260534 -1.684292 -11.168872 -0.676836 -2.669962 41.887593 -2.809149 -15.730941 6.464033 -4.263600 0.000001 -52.144700 -3.182652 -1.312779 -1.894237 -1.261945 -1.137048 -3.447897 -6.856119 -1.027324 -1.460541 10.268489 -11.320145 -7.743030 -2.777944 -0.214197 -0.020469 0.000000 0.000000 0.000000 5.145187 11.637751 -0.582247 -76.800477 23.373845 22.368243 179.861145 -67.739021 179.962464 4.237092 -5.340587 -0.212139 0.047225 0.503546 -0.000000 0.000000 0.000000 0.000000 0.000000 0.000000 0.000000 6.619313 -4.176954 -1.357844 85.207966 8.196571 37.474945 179.109973 72.693683 -179.992278 0.632917 8.951409 0.058523 -0.030268 -0.738726 -0.000000 0.000000 0.000000 0.000000 0.000000 0.000000 0.000000 
-1.684020 17.450497 -0.587511 23.411522 78.104074 40.851516 -9.279473 0.225956 3.730409 -6.425218 -9.238149 -31.821701 -2.372804 -0.539316 8.796709 0.310309 2.056378 2.070227 0.669499 0.000000 -29.824900 10.319710 -1.968990 -1.492979 8.966834 -1.795097 -12.111067 -0.859845 -2.815400 45.238138 -3.219280 -17.980591 4.671343 -4.370500 0.000000 -48.371400 -3.225832 -1.365606 -1.766615 -1.266366 -1.182426 -3.428683 -6.869674 -1.072715 -1.491037 10.298739 -11.327690 -7.762406 -2.782156 -0.213917 -0.028205 0.000000 0.000000 0.000000 5.164426 11.488194 -0.541747 -77.040651 23.185141 22.361051 179.858316 -68.144929 179.962576 4.205030 -5.331988 -0.210067 0.049057 0.502840 -0.000000 0.000000 0.000000 0.000000 0.000000 0.000000 0.000000 6.668081 -4.214884 -1.343911 85.227686 8.102836 37.355147 179.125205 72.620753 -179.993088 0.596652 9.011313 0.055896 -0.032097 -0.741122 -0.000000 0.000000 0.000000 0.000000 0.000000 0.000000 0.000000 
